<mxfile host="app.diagrams.net" modified="2023-07-19T12:47:48.569Z" agent="Mozilla/5.0 (Windows NT 10.0; Win64; x64) AppleWebKit/537.36 (KHTML, like Gecko) Chrome/114.0.0.0 Safari/537.36" etag="0yV-2vQ6xPiwB0keY3Hu" version="21.6.3" type="device">
  <diagram id="C5RBs43oDa-KdzZeNtuy" name="Page-1">
    <mxGraphModel dx="950" dy="677" grid="1" gridSize="10" guides="1" tooltips="1" connect="1" arrows="1" fold="1" page="1" pageScale="1" pageWidth="827" pageHeight="1169" math="0" shadow="0">
      <root>
        <mxCell id="WIyWlLk6GJQsqaUBKTNV-0" />
        <mxCell id="WIyWlLk6GJQsqaUBKTNV-1" parent="WIyWlLk6GJQsqaUBKTNV-0" />
        <mxCell id="WIyWlLk6GJQsqaUBKTNV-2" value="" style="rounded=0;html=1;jettySize=auto;orthogonalLoop=1;fontSize=11;endArrow=block;endFill=0;endSize=8;strokeWidth=1;shadow=0;labelBackgroundColor=none;edgeStyle=orthogonalEdgeStyle;" parent="WIyWlLk6GJQsqaUBKTNV-1" edge="1">
          <mxGeometry relative="1" as="geometry">
            <mxPoint x="70" y="120" as="sourcePoint" />
            <mxPoint x="70" y="150" as="targetPoint" />
          </mxGeometry>
        </mxCell>
        <mxCell id="WIyWlLk6GJQsqaUBKTNV-4" value="No" style="rounded=0;html=1;jettySize=auto;orthogonalLoop=1;fontSize=11;endArrow=block;endFill=0;endSize=8;strokeWidth=1;shadow=0;labelBackgroundColor=none;edgeStyle=orthogonalEdgeStyle;exitX=0.5;exitY=1;exitDx=0;exitDy=0;entryX=0.5;entryY=0;entryDx=0;entryDy=0;" parent="WIyWlLk6GJQsqaUBKTNV-1" source="WIyWlLk6GJQsqaUBKTNV-6" target="2FnuQaBYJbt69gb6X7N5-5" edge="1">
          <mxGeometry x="-0.0244" y="10" relative="1" as="geometry">
            <mxPoint as="offset" />
            <mxPoint x="72.5" y="315" as="sourcePoint" />
            <mxPoint x="70" y="520" as="targetPoint" />
          </mxGeometry>
        </mxCell>
        <mxCell id="WIyWlLk6GJQsqaUBKTNV-5" value="Yes" style="edgeStyle=orthogonalEdgeStyle;rounded=0;html=1;jettySize=auto;orthogonalLoop=1;fontSize=11;endArrow=block;endFill=0;endSize=8;strokeWidth=1;shadow=0;labelBackgroundColor=none;exitX=1;exitY=0.5;exitDx=0;exitDy=0;entryX=0;entryY=0.5;entryDx=0;entryDy=0;" parent="WIyWlLk6GJQsqaUBKTNV-1" target="WIyWlLk6GJQsqaUBKTNV-7" edge="1" source="WIyWlLk6GJQsqaUBKTNV-6">
          <mxGeometry y="10" relative="1" as="geometry">
            <mxPoint as="offset" />
            <mxPoint x="140" y="294.5" as="sourcePoint" />
            <Array as="points" />
            <mxPoint x="410" y="294.5" as="targetPoint" />
          </mxGeometry>
        </mxCell>
        <mxCell id="WIyWlLk6GJQsqaUBKTNV-6" value="index가 6보다&lt;br&gt;작거나 같다면" style="rhombus;whiteSpace=wrap;html=1;shadow=0;fontFamily=Helvetica;fontSize=12;align=center;strokeWidth=1;spacing=6;spacingTop=-4;" parent="WIyWlLk6GJQsqaUBKTNV-1" vertex="1">
          <mxGeometry x="10" y="255" width="120" height="95" as="geometry" />
        </mxCell>
        <mxCell id="2FnuQaBYJbt69gb6X7N5-1" value="" style="edgeStyle=orthogonalEdgeStyle;rounded=0;orthogonalLoop=1;jettySize=auto;html=1;endArrow=block;endFill=0;" edge="1" parent="WIyWlLk6GJQsqaUBKTNV-1" source="WIyWlLk6GJQsqaUBKTNV-7" target="2FnuQaBYJbt69gb6X7N5-0">
          <mxGeometry relative="1" as="geometry" />
        </mxCell>
        <mxCell id="WIyWlLk6GJQsqaUBKTNV-7" value="1...45 범위의 랜덤&lt;br&gt;&amp;nbsp;Int값 생성" style="rounded=1;whiteSpace=wrap;html=1;fontSize=12;glass=0;strokeWidth=1;shadow=0;" parent="WIyWlLk6GJQsqaUBKTNV-1" vertex="1">
          <mxGeometry x="240" y="275.63" width="140" height="53.75" as="geometry" />
        </mxCell>
        <mxCell id="kgnpg1wfMWJ6gp_dg6EU-0" value="시작" style="ellipse;whiteSpace=wrap;html=1;" parent="WIyWlLk6GJQsqaUBKTNV-1" vertex="1">
          <mxGeometry x="27.5" y="60" width="85" height="60" as="geometry" />
        </mxCell>
        <mxCell id="kgnpg1wfMWJ6gp_dg6EU-1" value="끝" style="ellipse;whiteSpace=wrap;html=1;" parent="WIyWlLk6GJQsqaUBKTNV-1" vertex="1">
          <mxGeometry x="22.5" y="543.75" width="95" height="60" as="geometry" />
        </mxCell>
        <mxCell id="kgnpg1wfMWJ6gp_dg6EU-2" value="&lt;span style=&quot;font-size: 15px;&quot;&gt;makeLottoNumber&lt;/span&gt;" style="text;strokeColor=none;fillColor=none;align=left;verticalAlign=middle;spacingLeft=4;spacingRight=4;overflow=hidden;points=[[0,0.5],[1,0.5]];portConstraint=eastwest;rotatable=0;whiteSpace=wrap;html=1;" parent="WIyWlLk6GJQsqaUBKTNV-1" vertex="1">
          <mxGeometry x="6.25" y="20" width="147.5" height="30" as="geometry" />
        </mxCell>
        <mxCell id="kgnpg1wfMWJ6gp_dg6EU-5" value="" style="endArrow=none;rounded=0;endFill=0;entryX=1;entryY=0.5;entryDx=0;entryDy=0;html=1;exitX=1;exitY=0.5;exitDx=0;exitDy=0;" parent="WIyWlLk6GJQsqaUBKTNV-1" source="2FnuQaBYJbt69gb6X7N5-4" target="kgnpg1wfMWJ6gp_dg6EU-8" edge="1">
          <mxGeometry width="50" height="50" relative="1" as="geometry">
            <mxPoint x="540" y="350" as="sourcePoint" />
            <mxPoint x="72.5" y="200" as="targetPoint" />
            <Array as="points">
              <mxPoint x="480" y="517" />
              <mxPoint x="480" y="175" />
            </Array>
          </mxGeometry>
        </mxCell>
        <mxCell id="kgnpg1wfMWJ6gp_dg6EU-12" value="index 증가" style="edgeLabel;html=1;align=center;verticalAlign=middle;resizable=0;points=[];" parent="kgnpg1wfMWJ6gp_dg6EU-5" vertex="1" connectable="0">
          <mxGeometry x="0.1475" y="2" relative="1" as="geometry">
            <mxPoint x="7" y="-17" as="offset" />
          </mxGeometry>
        </mxCell>
        <mxCell id="kgnpg1wfMWJ6gp_dg6EU-8" value="Set&amp;lt;Int&amp;gt; 타입의 &#39;numbers&#39; 만들기" style="rounded=1;whiteSpace=wrap;html=1;" parent="WIyWlLk6GJQsqaUBKTNV-1" vertex="1">
          <mxGeometry x="15" y="150" width="110" height="50" as="geometry" />
        </mxCell>
        <mxCell id="kgnpg1wfMWJ6gp_dg6EU-9" value="" style="rounded=0;html=1;jettySize=auto;orthogonalLoop=1;fontSize=11;endArrow=block;endFill=0;endSize=8;strokeWidth=1;shadow=0;labelBackgroundColor=none;edgeStyle=orthogonalEdgeStyle;entryX=0.5;entryY=0;entryDx=0;entryDy=0;" parent="WIyWlLk6GJQsqaUBKTNV-1" target="WIyWlLk6GJQsqaUBKTNV-6" edge="1">
          <mxGeometry relative="1" as="geometry">
            <mxPoint x="69.5" y="200" as="sourcePoint" />
            <mxPoint x="69.5" y="230" as="targetPoint" />
          </mxGeometry>
        </mxCell>
        <mxCell id="2FnuQaBYJbt69gb6X7N5-0" value="Set안에 생성한&lt;br&gt;Int값이 존재?" style="rhombus;whiteSpace=wrap;html=1;shadow=0;fontFamily=Helvetica;fontSize=12;align=center;strokeWidth=1;spacing=6;spacingTop=-4;" vertex="1" parent="WIyWlLk6GJQsqaUBKTNV-1">
          <mxGeometry x="250" y="360" width="120" height="95" as="geometry" />
        </mxCell>
        <mxCell id="2FnuQaBYJbt69gb6X7N5-2" value="Yes" style="edgeStyle=orthogonalEdgeStyle;rounded=0;html=1;jettySize=auto;orthogonalLoop=1;fontSize=11;endArrow=block;endFill=0;endSize=8;strokeWidth=1;shadow=0;labelBackgroundColor=none;exitX=1;exitY=0.5;exitDx=0;exitDy=0;entryX=1;entryY=0.5;entryDx=0;entryDy=0;" edge="1" parent="WIyWlLk6GJQsqaUBKTNV-1" source="2FnuQaBYJbt69gb6X7N5-0" target="WIyWlLk6GJQsqaUBKTNV-7">
          <mxGeometry y="10" relative="1" as="geometry">
            <mxPoint as="offset" />
            <mxPoint x="380" y="437" as="sourcePoint" />
            <Array as="points">
              <mxPoint x="440" y="408" />
              <mxPoint x="440" y="303" />
            </Array>
            <mxPoint x="390" y="302.505" as="targetPoint" />
          </mxGeometry>
        </mxCell>
        <mxCell id="2FnuQaBYJbt69gb6X7N5-3" value="No" style="rounded=0;html=1;jettySize=auto;orthogonalLoop=1;fontSize=11;endArrow=block;endFill=0;endSize=8;strokeWidth=1;shadow=0;labelBackgroundColor=none;edgeStyle=orthogonalEdgeStyle;exitX=0.5;exitY=1;exitDx=0;exitDy=0;entryX=0.5;entryY=0;entryDx=0;entryDy=0;" edge="1" parent="WIyWlLk6GJQsqaUBKTNV-1" source="2FnuQaBYJbt69gb6X7N5-0" target="2FnuQaBYJbt69gb6X7N5-4">
          <mxGeometry x="-0.0244" y="10" relative="1" as="geometry">
            <mxPoint as="offset" />
            <mxPoint x="309.5" y="510" as="sourcePoint" />
            <mxPoint x="310" y="620" as="targetPoint" />
            <Array as="points" />
          </mxGeometry>
        </mxCell>
        <mxCell id="2FnuQaBYJbt69gb6X7N5-4" value="Set에 값 추가" style="rounded=1;whiteSpace=wrap;html=1;fontSize=12;glass=0;strokeWidth=1;shadow=0;" vertex="1" parent="WIyWlLk6GJQsqaUBKTNV-1">
          <mxGeometry x="240" y="490" width="140" height="53.75" as="geometry" />
        </mxCell>
        <mxCell id="2FnuQaBYJbt69gb6X7N5-6" value="" style="edgeStyle=orthogonalEdgeStyle;rounded=0;orthogonalLoop=1;jettySize=auto;html=1;endArrow=block;endFill=0;" edge="1" parent="WIyWlLk6GJQsqaUBKTNV-1" source="2FnuQaBYJbt69gb6X7N5-5" target="kgnpg1wfMWJ6gp_dg6EU-1">
          <mxGeometry relative="1" as="geometry" />
        </mxCell>
        <mxCell id="2FnuQaBYJbt69gb6X7N5-5" value="만들어진 Set을 리턴" style="rounded=1;whiteSpace=wrap;html=1;fontSize=12;glass=0;strokeWidth=1;shadow=0;" vertex="1" parent="WIyWlLk6GJQsqaUBKTNV-1">
          <mxGeometry y="430" width="140" height="53.75" as="geometry" />
        </mxCell>
      </root>
    </mxGraphModel>
  </diagram>
</mxfile>
